<svg xmlns="http://www.w3.org/2000/svg" width="18" height="18" viewBox="0 0 18 18">
  <g id="Group_993" data-name="Group 993" transform="translate(24158 -8375)">
    <rect id="Rectangle_1147" data-name="Rectangle 1147" width="18" height="18" transform="translate(-24158 8375)" fill="none"/>
    <path id="Path_762" data-name="Path 762" d="M105.187,12.279,99.878,9.942a1.8,1.8,0,0,0-1.5,0l-5.309,2.337a1.831,1.831,0,0,0-1.114,1.707v6.608A1.832,1.832,0,0,0,93.067,22.3l5.309,2.337a1.8,1.8,0,0,0,1.5,0l5.309-2.337a1.831,1.831,0,0,0,1.114-1.707V13.986a1.831,1.831,0,0,0-1.114-1.707ZM93.47,14.366a.357.357,0,0,1,.291-.652l5.366,2.4,5.366-2.4a.357.357,0,1,1,.291.652l-5.3,2.371v5.972a.358.358,0,0,1-.716,0V16.736l-5.3-2.371Z" transform="translate(-24247.953 8366.222)" fill="#0fc2e9" fill-rule="evenodd"/>
  </g>
</svg>
