<svg xmlns="http://www.w3.org/2000/svg" width="82" height="82" viewBox="0 0 82 82">
  <g id="Upload" transform="translate(-1196 -1347)">
    <rect id="Rectangle_1096" data-name="Rectangle 1096" width="82" height="82" transform="translate(1196 1347)" fill="none"/>
    <path id="Icon_awesome-cloud-upload-alt" data-name="Icon awesome-cloud-upload-alt" d="M59.4,23.752a10.62,10.62,0,0,0-9.9-14.43,10.553,10.553,0,0,0-5.889,1.79,17.68,17.68,0,0,0-33,8.817c0,.3.011.6.022.895A15.915,15.915,0,0,0,15.911,51.75H56.571a14.142,14.142,0,0,0,2.829-28ZM43.467,30.536H36.241V42.911a1.773,1.773,0,0,1-1.768,1.768h-5.3A1.773,1.773,0,0,1,27.4,42.911V30.536H20.176a1.765,1.765,0,0,1-1.249-3.016L30.573,15.874a1.774,1.774,0,0,1,2.5,0L44.716,27.519A1.767,1.767,0,0,1,43.467,30.536Z" transform="translate(1202 1360.75)" fill="#789cbf"/>
  </g>
</svg>
